<?xml version="1.0" standalone="no"?>
<!DOCTYPE svg PUBLIC "-//W3C//DTD SVG 20010904//EN"
 "http://www.w3.org/TR/2001/REC-SVG-20010904/DTD/svg10.dtd">
<svg version="1.0" xmlns="http://www.w3.org/2000/svg"
 width="505.000000pt" height="175.000000pt" viewBox="0 0 505.000000 175.000000"
 preserveAspectRatio="xMidYMid meet">
<metadata>
Created by potrace 1.15, written by Peter Selinger 2001-2017
</metadata>
<g transform="translate(0.000000,175.000000) scale(0.100000,-0.100000)"
fill="#000000" stroke="none">
<path d="M1803 1587 l-313 -162 0 -152 c0 -88 4 -153 9 -153 5 0 67 31 138 69
70 39 136 73 146 76 16 7 17 -27 17 -614 l0 -621 165 0 165 0 0 860 c0 473 -3
860 -7 860 -5 0 -149 -73 -320 -163z"/>
<path d="M4340 1724 c-137 -37 -247 -119 -296 -221 -49 -104 -54 -168 -54
-631 1 -555 10 -610 121 -727 92 -98 225 -145 409 -145 218 0 383 82 463 228
60 110 62 133 62 637 0 498 -2 518 -55 625 -16 31 -54 80 -89 113 -102 98
-217 137 -396 136 -63 0 -133 -7 -165 -15z m298 -331 c20 -17 46 -45 57 -64
19 -33 20 -52 20 -454 l0 -420 -23 -48 c-64 -128 -259 -137 -339 -15 l-28 42
-3 388 c-2 243 1 409 7 445 22 116 88 167 204 160 57 -4 74 -9 105 -34z"/>
<path d="M0 876 l0 -846 175 0 175 0 0 290 0 290 163 0 c130 0 180 4 241 20
205 52 340 185 391 385 18 69 20 231 4 307 -38 183 -170 313 -376 370 -71 20
-108 22 -425 26 l-348 4 0 -846z m612 534 c114 -32 188 -130 188 -249 0 -175
-116 -261 -352 -261 l-98 0 0 267 0 266 113 -6 c61 -4 129 -12 149 -17z"/>
<path d="M2473 1708 c3 -11 447 -1475 494 -1631 l14 -47 189 0 189 0 20 62
c41 135 504 1604 508 1616 4 9 -36 12 -179 12 l-184 0 -174 -550 c-96 -303
-177 -547 -180 -543 -4 5 -80 252 -170 551 l-163 542 -185 0 c-143 0 -183 -3
-179 -12z"/>
</g>
</svg>
